<?xml version="1.0" encoding="UTF-8"?>
<!DOCTYPE svg PUBLIC "-//W3C//DTD SVG 1.1//EN" "http://www.w3.org/Graphics/SVG/1.1/DTD/svg11.dtd">
<svg xmlns="http://www.w3.org/2000/svg" version="1.1" width="6312px" height="1296px" style="shape-rendering:geometricPrecision; text-rendering:geometricPrecision; image-rendering:optimizeQuality; fill-rule:evenodd; clip-rule:evenodd" xmlns:xlink="http://www.w3.org/1999/xlink">
<g><path style="opacity:1" fill="#52ab73" d="M 298.5,55.5 C 371.501,55.3333 444.501,55.5 517.5,56C 529.051,59.2121 537.218,66.3788 542,77.5C 555.454,120.825 569.287,163.992 583.5,207C 900.668,207.792 1217.83,207.625 1535,206.5C 1553.5,206.667 1572,206.833 1590.5,207C 1616.72,207.546 1628.22,220.713 1625,246.5C 1589.33,430.167 1553.67,613.833 1518,797.5C 1514.78,813.025 1505.28,821.525 1489.5,823C 1250.83,846.667 1012.17,870.333 773.5,894C 753.2,928.763 733.533,963.929 714.5,999.5C 958.499,1000.33 1202.5,1000.83 1446.5,1001C 1457.23,1003.08 1465.06,1008.91 1470,1018.5C 1471.69,1024.28 1473.52,1029.95 1475.5,1035.5C 1525.56,1057.94 1548.06,1096.6 1543,1151.5C 1534.81,1186.05 1514.64,1210.89 1482.5,1226C 1471.87,1230.03 1460.87,1232.19 1449.5,1232.5C 1403.79,1234.4 1370.62,1215.07 1350,1174.5C 1336.31,1139.27 1339.31,1105.61 1359,1073.5C 1362.13,1069.37 1365.63,1065.53 1369.5,1062C 1210.83,1061.17 1052.17,1061.33 893.5,1062.5C 921.337,1094.85 927.837,1131.18 913,1171.5C 897.703,1206.77 870.87,1226.94 832.5,1232C 788.55,1236.61 754.716,1220.44 731,1183.5C 717.966,1157.65 714.966,1130.65 722,1102.5C 726.747,1087.28 734.58,1073.94 745.5,1062.5C 715.172,1061.67 684.839,1061.17 654.5,1061C 636.83,1056.31 628.997,1044.81 631,1026.5C 632.271,1022.02 633.938,1017.69 636,1013.5C 665.572,962.85 694.739,912.017 723.5,861C 718.868,846.772 714.035,832.606 709,818.5C 636.667,585.5 564.333,352.5 492,119.5C 491.5,118.333 490.667,117.5 489.5,117C 426.5,116.667 363.5,116.333 300.5,116C 279.282,109.729 271.449,95.8962 277,74.5C 281.585,65.0728 288.751,58.7395 298.5,55.5 Z"/></g>
<g><path style="opacity:1" fill="#53ab74" d="M 59.5,206.5 C 179.165,207.474 298.831,207.64 418.5,207C 435.913,205.44 447.079,212.94 452,229.5C 455.584,250.53 447.084,263.363 426.5,268C 302.5,268.667 178.5,268.667 54.5,268C 38.1521,264.65 29.1521,254.65 27.5,238C 30.1605,219.171 40.8272,208.671 59.5,206.5 Z"/></g>
<g><path style="opacity:1" fill="#394458" d="M 4079.5,376.5 C 4105.5,376.5 4131.5,376.5 4157.5,376.5C 4157.17,456.071 4157.5,535.571 4158.5,615C 4165.72,617.105 4171.56,615.272 4176,609.5C 4202.31,577.021 4228.81,544.688 4255.5,512.5C 4284.16,511.5 4312.83,511.167 4341.5,511.5C 4341.39,513.783 4340.56,515.783 4339,517.5C 4304.6,557.314 4270.43,597.314 4236.5,637.5C 4274.98,685.811 4313.64,733.978 4352.5,782C 4321.65,783.658 4290.65,783.991 4259.5,783C 4230.74,744.82 4201.74,706.82 4172.5,669C 4167.58,668.198 4162.75,668.365 4158,669.5C 4157.5,707.499 4157.33,745.499 4157.5,783.5C 4131.5,783.5 4105.5,783.5 4079.5,783.5C 4079.5,647.833 4079.5,512.167 4079.5,376.5 Z"/></g>
<g><path style="opacity:1" fill="#394458" d="M 5265.5,376.5 C 5291.17,376.5 5316.83,376.5 5342.5,376.5C 5342.5,512.167 5342.5,647.833 5342.5,783.5C 5316.59,783.828 5290.76,783.495 5265,782.5C 5264.17,647.097 5264.34,511.764 5265.5,376.5 Z"/></g>
<g><path style="opacity:1" fill="#384357" d="M 1970.5,400.5 C 2062.5,400.5 2154.5,400.5 2246.5,400.5C 2246.98,422.258 2246.48,443.925 2245,465.5C 2187.05,546.446 2128.72,627.113 2070,707.5C 2068.44,709.217 2067.61,711.217 2067.5,713.5C 2128.17,713.5 2188.83,713.5 2249.5,713.5C 2249.5,736.833 2249.5,760.167 2249.5,783.5C 2156.5,783.5 2063.5,783.5 1970.5,783.5C 1970.02,761.409 1970.52,739.409 1972,717.5C 2031.62,635.755 2091.12,553.922 2150.5,472C 2090.64,470.504 2030.64,470.004 1970.5,470.5C 1970.5,447.167 1970.5,423.833 1970.5,400.5 Z"/></g>
<g><path style="opacity:1" fill="#394458" d="M 2420.5,400.5 C 2453.5,400.5 2486.5,400.5 2519.5,400.5C 2565.87,527.763 2612.53,654.93 2659.5,782C 2645.82,783.16 2631.98,783.66 2618,783.5C 2604.5,783.167 2591,782.833 2577.5,782.5C 2568.46,756.536 2559.12,730.702 2549.5,705C 2496.5,704.333 2443.5,704.333 2390.5,705C 2380.88,730.702 2371.54,756.536 2362.5,782.5C 2349,782.833 2335.5,783.167 2322,783.5C 2308.02,783.66 2294.18,783.16 2280.5,782C 2327.47,654.93 2374.13,527.763 2420.5,400.5 Z M 2469.5,478.5 C 2471.12,480.121 2472.28,482.121 2473,484.5C 2490.64,535.092 2508.47,585.592 2526.5,636C 2526.17,636.333 2525.83,636.667 2525.5,637C 2488.02,637.993 2450.69,637.659 2413.5,636C 2432.31,583.543 2450.98,531.043 2469.5,478.5 Z"/></g>
<g><path style="opacity:1" fill="#394457" d="M 2718.5,399.5 C 2768.5,400.4 2818.5,400.567 2868.5,400C 2902.95,398.816 2933.29,409.15 2959.5,431C 2988.82,461.526 3001.32,498.026 2997,540.5C 2992.44,578.825 2974.27,608.658 2942.5,630C 2925.71,639.366 2907.71,644.699 2888.5,646C 2858.5,646.333 2828.5,646.667 2798.5,647C 2798,647.5 2797.5,648 2797,648.5C 2796.5,693.499 2796.33,738.499 2796.5,783.5C 2769.93,783.828 2743.43,783.495 2717,782.5C 2716.83,718.833 2716.67,655.167 2716.5,591.5C 2716.5,527.291 2717.17,463.291 2718.5,399.5 Z M 2913.5,493.5 C 2913.93,494.71 2914.6,495.71 2915.5,496.5C 2920.68,510.783 2921.85,525.45 2919,540.5C 2912.1,563.059 2896.94,575.892 2873.5,579C 2847.93,579.828 2822.43,579.661 2797,578.5C 2796.17,541.595 2796.34,504.762 2797.5,468C 2824.52,467.094 2851.52,467.428 2878.5,469C 2893.74,472.268 2905.4,480.435 2913.5,493.5 Z"/></g>
<g><path style="opacity:1" fill="#394458" d="M 3080.5,400.5 C 3118.17,400.333 3155.83,400.5 3193.5,401C 3194,401.5 3194.5,402 3195,402.5C 3221.35,481.053 3248.18,559.386 3275.5,637.5C 3303.03,558.918 3330.36,480.251 3357.5,401.5C 3395.49,400.5 3433.49,400.167 3471.5,400.5C 3482.44,528.114 3492.77,655.781 3502.5,783.5C 3475.77,784.152 3449.27,783.486 3423,781.5C 3414.85,686.816 3406.51,592.149 3398,497.5C 3366.22,592.832 3334.06,687.998 3301.5,783C 3284.16,783.833 3266.82,783.666 3249.5,782.5C 3217.57,687.87 3185.73,593.204 3154,498.5C 3145.1,593.118 3136.43,687.785 3128,782.5C 3101.57,783.495 3075.07,783.828 3048.5,783.5C 3058.56,655.733 3069.23,528.067 3080.5,400.5 Z"/></g>
<g><path style="opacity:1" fill="#394458" d="M 4732.5,423.5 C 4755.5,423.333 4778.5,423.5 4801.5,424C 4802.33,452.761 4802.83,481.595 4803,510.5C 4821.33,511.167 4839.67,511.833 4858,512.5C 4858.67,531.167 4858.67,549.833 4858,568.5C 4839.67,569.167 4821.33,569.833 4803,570.5C 4802.33,613.833 4802.33,657.167 4803,700.5C 4804.7,711.075 4810.53,718.242 4820.5,722C 4831.82,725.385 4843.32,726.219 4855,724.5C 4856.26,724.759 4857.26,725.426 4858,726.5C 4858.67,745.167 4858.67,763.833 4858,782.5C 4857.25,783.126 4856.42,783.626 4855.5,784C 4832.5,783.988 4809.5,783.322 4786.5,782C 4749.5,773.541 4729,750.375 4725,712.5C 4724.67,665.167 4724.33,617.833 4724,570.5C 4706.33,569.833 4688.67,569.167 4671,568.5C 4670.33,549.833 4670.33,531.167 4671,512.5C 4682.46,511.264 4693.96,510.097 4705.5,509C 4720.51,503.841 4729.01,493.341 4731,477.5C 4732.33,459.528 4732.83,441.528 4732.5,423.5 Z"/></g>
<g><path style="opacity:1" fill="#55ac75" d="M 236.5,423.5 C 308.501,423.333 380.501,423.5 452.5,424C 474.702,428.556 483.869,442.056 480,464.5C 474.632,475.874 465.799,482.707 453.5,485C 379.833,485.667 306.167,485.667 232.5,485C 228.304,480.902 223.304,478.402 217.5,477.5C 215.979,473.441 214.146,469.441 212,465.5C 210.784,461.753 209.951,457.92 209.5,454C 211.476,448.659 212.976,443.159 214,437.5C 215.833,434.333 218.333,431.833 221.5,430C 226.367,427.226 231.367,425.059 236.5,423.5 Z"/></g>
<g><path style="opacity:1" fill="#8e929f" d="M 2913.5,493.5 C 2915.05,493.821 2915.71,494.821 2915.5,496.5C 2914.6,495.71 2913.93,494.71 2913.5,493.5 Z"/></g>
<g><path style="opacity:1" fill="#394458" d="M 3677.5,504.5 C 3701.1,504.158 3724.1,507.658 3746.5,515C 3774.63,527.048 3791.46,548.215 3797,578.5C 3797.89,583.47 3798.55,588.47 3799,593.5C 3799.33,639.5 3799.67,685.5 3800,731.5C 3800.98,748.678 3802.98,765.678 3806,782.5C 3781.91,783.494 3757.74,783.828 3733.5,783.5C 3732.39,773.948 3730.39,764.615 3727.5,755.5C 3712.59,770.792 3694.59,780.625 3673.5,785C 3647.78,790.558 3622.45,789.225 3597.5,781C 3577.52,772.356 3564.69,757.523 3559,736.5C 3547.8,687.386 3565.64,653.886 3612.5,636C 3618.5,634 3624.5,632 3630.5,630C 3656.14,623.873 3681.8,617.873 3707.5,612C 3721.84,608.674 3727.68,599.84 3725,585.5C 3722.37,574.205 3715.54,566.705 3704.5,563C 3692.72,559.675 3680.72,558.675 3668.5,560C 3645.32,562.677 3631.66,575.51 3627.5,598.5C 3605.43,596.211 3583.43,592.711 3561.5,588C 3560.64,587.311 3559.98,586.478 3559.5,585.5C 3567.96,546.871 3591.3,522.371 3629.5,512C 3645.43,508.066 3661.43,505.566 3677.5,504.5 Z M 3725.5,659.5 C 3726.83,659.5 3728.17,659.5 3729.5,659.5C 3730.3,682.212 3723.46,702.212 3709,719.5C 3691.45,734.748 3671.28,739.581 3648.5,734C 3633.92,728.003 3627.75,717.17 3630,701.5C 3632.89,692.124 3639.06,685.957 3648.5,683C 3674.37,675.429 3700.04,667.596 3725.5,659.5 Z"/></g>
<g><path style="opacity:1" fill="#394458" d="M 5526.5,504.5 C 5550.67,504.166 5574,508.333 5596.5,517C 5626.02,532.828 5641.85,557.661 5644,591.5C 5644.22,643.173 5644.89,694.84 5646,746.5C 5647.51,758.9 5649.35,771.233 5651.5,783.5C 5627.5,783.667 5603.5,783.5 5579.5,783C 5577.46,773.819 5575.3,764.652 5573,755.5C 5552.13,776.013 5526.96,786.847 5497.5,788C 5480.54,789.155 5463.87,787.488 5447.5,783C 5415.13,769.468 5399.46,744.968 5400.5,709.5C 5401.43,682.465 5413.09,661.631 5435.5,647C 5450.8,638.901 5466.8,632.567 5483.5,628C 5506.41,622.284 5529.41,616.951 5552.5,612C 5571.54,605.404 5576.04,593.238 5566,575.5C 5558.91,566.865 5549.74,561.699 5538.5,560C 5521.54,557.311 5505.54,559.977 5490.5,568C 5480.73,576.114 5474.73,586.447 5472.5,599C 5450.19,596.086 5428.02,592.253 5406,587.5C 5412.28,547.547 5435.11,522.38 5474.5,512C 5491.73,507.702 5509.06,505.202 5526.5,504.5 Z M 5554.5,719.5 C 5552.25,720.08 5550.58,721.413 5549.5,723.5C 5531.29,736.067 5511.63,739.067 5490.5,732.5C 5489.71,731.599 5488.71,730.932 5487.5,730.5C 5476.11,723.522 5472.28,713.522 5476,700.5C 5479.66,690.837 5486.5,684.67 5496.5,682C 5522.49,674.392 5548.49,666.892 5574.5,659.5C 5575.59,682.231 5568.92,702.231 5554.5,719.5 Z"/></g>
<g><path style="opacity:1" fill="#394458" d="M 5912.5,612.5 C 5909.43,612.632 5906.43,612.299 5903.5,611.5C 5894.19,581.372 5873.69,566.372 5842,566.5C 5811.68,566.494 5790.68,580.494 5779,608.5C 5769.81,635.429 5770.48,662.096 5781,688.5C 5797.35,719.257 5822.85,731.757 5857.5,726C 5875.81,722.611 5889.31,712.778 5898,696.5C 5900.31,691.376 5902.48,686.209 5904.5,681C 5927.54,682.27 5950.54,684.27 5973.5,687C 5974.43,687.388 5975.09,688.055 5975.5,689C 5962.52,739.311 5930.86,770.978 5880.5,784C 5837.1,793.932 5796.1,787.932 5757.5,766C 5715.51,737.034 5694.51,696.7 5694.5,645C 5695.82,590.985 5719.49,550.318 5765.5,523C 5811.79,501.582 5858.79,499.916 5906.5,518C 5944.32,535.8 5966.99,565.134 5974.5,606C 5953.87,608.57 5933.2,610.737 5912.5,612.5 Z"/></g>
<g><path style="opacity:1" fill="#394458" d="M 6277.5,700.5 C 6278.97,701.779 6279.63,703.446 6279.5,705.5C 6265.26,744.9 6237.93,770.4 6197.5,782C 6152.24,794.721 6108.9,790.054 6067.5,768C 6039.72,749.99 6021.55,724.823 6013,692.5C 6001.56,648.472 6006.56,606.472 6028,566.5C 6045.86,537.66 6071.36,519.16 6104.5,511C 6148.03,499.657 6189.7,504.324 6229.5,525C 6255.53,542.202 6272.37,566.035 6280,596.5C 6285.07,617.555 6286.74,638.889 6285,660.5C 6218.24,661.331 6151.4,661.831 6084.5,662C 6087.42,704.746 6110.42,726.58 6153.5,727.5C 6179.92,727.129 6199.25,715.296 6211.5,692C 6233.53,694.314 6255.53,697.147 6277.5,700.5 Z M 6112.5,611.5 C 6104.17,611.5 6095.83,611.5 6087.5,611.5C 6087.5,609.167 6087.5,606.833 6087.5,604.5C 6094.21,579.292 6110.55,564.792 6136.5,561C 6160.36,557.289 6180.86,563.789 6198,580.5C 6205.27,589.15 6209.11,599.15 6209.5,610.5C 6177.17,611.256 6144.84,611.589 6112.5,611.5 Z"/></g>
<g><path style="opacity:1" fill="#394458" d="M 4495.5,505.5 C 4521.49,503.665 4546.82,506.831 4571.5,515C 4609.25,530.418 4633.08,557.918 4643,597.5C 4648.14,618.58 4649.64,639.913 4647.5,661.5C 4580.83,661.333 4514.17,661.5 4447.5,662C 4446.83,662.667 4446.17,663.333 4445.5,664C 4452.94,709.388 4479.6,730.388 4525.5,727C 4547.88,724.137 4563.88,712.471 4573.5,692C 4596.56,694.246 4619.56,697.246 4642.5,701C 4643.55,702.388 4643.72,703.888 4643,705.5C 4625.87,748.956 4594.37,775.456 4548.5,785C 4509.97,793.225 4472.97,788.891 4437.5,772C 4399.91,750.377 4378.07,717.877 4372,674.5C 4364.98,632.616 4372.98,593.95 4396,558.5C 4421.71,527.057 4454.88,509.39 4495.5,505.5 Z M 4571.5,603.5 C 4571.5,605.833 4571.5,608.167 4571.5,610.5C 4562.98,610.174 4554.65,610.507 4546.5,611.5C 4514.17,611.5 4481.83,611.5 4449.5,611.5C 4451.85,587.977 4464.18,572.143 4486.5,564C 4510,556.837 4532,559.837 4552.5,573C 4557.03,577.199 4561.2,581.699 4565,586.5C 4567.87,591.933 4570.03,597.6 4571.5,603.5 Z"/></g>
<g><path style="opacity:1" fill="#394458" d="M 5065.5,505.5 C 5120.66,502.491 5162.16,524.491 5190,571.5C 5209.16,611.742 5212.83,653.409 5201,696.5C 5178.77,760.4 5133.6,791.234 5065.5,789C 5036.16,787.248 5012.33,775.082 4994,752.5C 4993.5,806.832 4993.33,861.166 4993.5,915.5C 4967.83,915.5 4942.17,915.5 4916.5,915.5C 4916.5,780.833 4916.5,646.167 4916.5,511.5C 4940.83,511.5 4965.17,511.5 4989.5,511.5C 4990.11,522.511 4990.95,533.511 4992,544.5C 5010.5,520.331 5035,507.331 5065.5,505.5 Z M 5048.5,568.5 C 5089.93,566.958 5116.76,585.958 5129,625.5C 5137.17,663.01 5126,693.177 5095.5,716C 5059.79,733.861 5028.95,727.694 5003,697.5C 4981.83,665.313 4981.17,632.646 5001,599.5C 5012.92,582.971 5028.75,572.638 5048.5,568.5 Z"/></g>
<g><path style="opacity:1" fill="#3a4558" d="M 4024.5,508.5 C 4027.83,508.5 4031.17,508.5 4034.5,508.5C 4035.14,531.064 4034.47,553.397 4032.5,575.5C 4015.98,575.502 3999.98,578.336 3984.5,584C 3964.13,593.217 3952.96,609.05 3951,631.5C 3950.67,681.833 3950.33,732.167 3950,782.5C 3924.57,783.661 3899.07,783.828 3873.5,783C 3872.33,692.903 3872.17,602.737 3873,512.5C 3897.43,511.506 3921.93,511.172 3946.5,511.5C 3946.33,524.837 3946.5,538.171 3947,551.5C 3966.24,525.625 3992.07,511.292 4024.5,508.5 Z"/></g>
<g><path style="opacity:1" fill="#586172" d="M 4024.5,508.5 C 4027.96,507.518 4031.63,507.185 4035.5,507.5C 4035.5,530.167 4035.5,552.833 4035.5,575.5C 4034.5,575.5 4033.5,575.5 4032.5,575.5C 4034.47,553.397 4035.14,531.064 4034.5,508.5C 4031.17,508.5 4027.83,508.5 4024.5,508.5 Z"/></g>
<g><path style="opacity:0.941" fill="#d7dade" d="M 4571.5,603.5 C 4572.47,605.948 4572.81,608.615 4572.5,611.5C 4563.83,611.5 4555.17,611.5 4546.5,611.5C 4554.65,610.507 4562.98,610.174 4571.5,610.5C 4571.5,608.167 4571.5,605.833 4571.5,603.5 Z"/></g>
<g><path style="opacity:1" fill="#858b98" d="M 6087.5,604.5 C 6087.5,606.833 6087.5,609.167 6087.5,611.5C 6095.83,611.5 6104.17,611.5 6112.5,611.5C 6104.02,612.493 6095.35,612.826 6086.5,612.5C 6086.19,609.615 6086.53,606.948 6087.5,604.5 Z"/></g>
<g><path style="opacity:1" fill="#89909c" d="M 5903.5,611.5 C 5906.43,612.299 5909.43,612.632 5912.5,612.5C 5910.03,613.634 5907.37,613.801 5904.5,613C 5903.94,612.617 5903.61,612.117 5903.5,611.5 Z"/></g>
<g><path style="opacity:1" fill="#53ab74" d="M 62.5,621.5 C 207.498,622.496 352.498,622.663 497.5,622C 506.467,622.569 514.467,625.569 521.5,631C 522.274,633.405 522.774,635.905 523,638.5C 526.262,643.024 528.429,648.024 529.5,653.5C 526.773,661.455 523.106,668.955 518.5,676C 512.225,679.471 505.559,681.805 498.5,683C 350.5,683.667 202.5,683.667 54.5,683C 34.2024,678.582 25.7024,666.082 29,645.5C 30.9117,637.84 34.7451,631.34 40.5,626C 47.9698,624.46 55.3031,622.96 62.5,621.5 Z"/></g>
<g><path style="opacity:1" fill="#7f8693" d="M 6277.5,700.5 C 6281.84,700.837 6282.51,702.503 6279.5,705.5C 6279.63,703.446 6278.97,701.779 6277.5,700.5 Z"/></g>
<g><path style="opacity:1" fill="#7a818f" d="M 5554.5,719.5 C 5553.42,721.587 5551.75,722.92 5549.5,723.5C 5550.58,721.413 5552.25,720.08 5554.5,719.5 Z"/></g>
<g><path style="opacity:1" fill="#9399a3" d="M 5487.5,730.5 C 5488.71,730.932 5489.71,731.599 5490.5,732.5C 5488.82,732.715 5487.82,732.048 5487.5,730.5 Z"/></g>
<g><path style="opacity:1" fill="#52ab73" d="M 269.5,784.5 C 347.167,784.333 424.834,784.5 502.5,785C 519.859,791.037 527.359,803.203 525,821.5C 521.86,833.973 514.027,841.807 501.5,845C 424.5,845.667 347.5,845.667 270.5,845C 250.929,838.369 243.429,824.869 248,804.5C 252.196,794.465 259.363,787.798 269.5,784.5 Z"/></g>
</svg>
