<?xml version="1.0" encoding="UTF-8"?>
<!DOCTYPE svg PUBLIC "-//W3C//DTD SVG 1.1//EN" "http://www.w3.org/Graphics/SVG/1.1/DTD/svg11.dtd">
<svg xmlns="http://www.w3.org/2000/svg" version="1.1" width="5872px" height="1888px" style="shape-rendering:geometricPrecision; text-rendering:geometricPrecision; image-rendering:optimizeQuality; fill-rule:evenodd; clip-rule:evenodd" xmlns:xlink="http://www.w3.org/1999/xlink">
<g><path style="opacity:1" fill="white" d="M 2316.5,23.5 C 2630.17,23.5 2943.83,23.5 3257.5,23.5C 3257.99,96.2492 3257.49,168.916 3256,241.5C 3051.36,524.973 2846.53,808.306 2641.5,1091.5C 2850.5,1092.5 3059.5,1092.83 3268.5,1092.5C 3268.5,1172.5 3268.5,1252.5 3268.5,1332.5C 2950.83,1332.5 2633.17,1332.5 2315.5,1332.5C 2315.33,1260.83 2315.5,1189.17 2316,1117.5C 2316.67,1116.17 2317.33,1114.83 2318,1113.5C 2523.45,829.72 2729.28,546.22 2935.5,263C 2729.17,262.5 2522.83,262.333 2316.5,262.5C 2316.5,182.833 2316.5,103.167 2316.5,23.5 Z"/></g>
<g><path style="opacity:1" fill="white" d="M 3856.5,23.5 C 3967.74,23.1679 4078.9,23.5012 4190,24.5C 4350.5,460.017 4511,895.517 4671.5,1331C 4578.97,1332.66 4486.31,1333 4393.5,1332C 4361.69,1242.22 4329.69,1152.56 4297.5,1063C 4114.83,1062.33 3932.17,1062.33 3749.5,1063C 3716.95,1152.48 3685.28,1242.31 3654.5,1332.5C 3561.5,1332.5 3468.5,1332.5 3375.5,1332.5C 3536.03,896.244 3696.36,459.91 3856.5,23.5 Z M 4023.5,281.5 C 4024.5,281.47 4025.16,281.97 4025.5,283C 4089.81,466.773 4153.81,650.606 4217.5,834.5C 4088.17,834.5 3958.83,834.5 3829.5,834.5C 3894.17,650.167 3958.83,465.833 4023.5,281.5 Z"/></g>
<g><path style="opacity:1" fill="white" d="M 4868.5,23.5 C 5058.83,23.3333 5249.17,23.5 5439.5,24C 5504.08,27.7284 5565.08,44.3951 5622.5,74C 5727.67,136.021 5792.83,227.187 5818,347.5C 5838.02,445.616 5829.02,540.949 5791,633.5C 5731.12,759.652 5631.96,833.819 5493.5,856C 5470.96,859.521 5448.29,861.854 5425.5,863C 5330.83,863.333 5236.17,863.667 5141.5,864C 5141,864.5 5140.5,865 5140,865.5C 5139.5,1021.17 5139.33,1176.83 5139.5,1332.5C 5049.17,1332.5 4958.83,1332.5 4868.5,1332.5C 4868.5,896.167 4868.5,459.833 4868.5,23.5 Z M 5140.5,250.5 C 5219.83,250.333 5299.17,250.5 5378.5,251C 5416.22,251.595 5451.55,260.928 5484.5,279C 5526.18,304.812 5551.68,341.979 5561,390.5C 5569.49,437.282 5566.49,483.282 5552,528.5C 5533.39,575.779 5499.89,607.279 5451.5,623C 5433.63,628.973 5415.3,632.64 5396.5,634C 5311.17,635.497 5225.84,635.83 5140.5,635C 5139.17,506.833 5139.17,378.667 5140.5,250.5 Z"/></g>
<g><path style="opacity:1" fill="white" d="M 890.5,1380.5 C 889.957,1380.56 889.624,1380.89 889.5,1381.5C 921.664,1382.83 953.664,1382.83 985.5,1381.5C 1252.5,1381.33 1519.5,1381.5 1786.5,1382C 1806.22,1388.24 1816.72,1401.74 1818,1422.5C 1870.6,1444.28 1899.1,1483.61 1903.5,1540.5C 1902.32,1587.76 1881.98,1623.92 1842.5,1649C 1791.14,1674.3 1742.8,1669.63 1697.5,1635C 1666.5,1606.34 1653,1570.84 1657,1528.5C 1659.61,1500.95 1670.11,1476.95 1688.5,1456.5C 1495.5,1455.5 1302.5,1455.17 1109.5,1455.5C 1109.35,1456.55 1109.52,1457.55 1110,1458.5C 1126.39,1475.95 1136.39,1496.62 1140,1520.5C 1147.22,1583.54 1122.39,1628.71 1065.5,1656C 1019.64,1672.75 977.311,1666.41 938.5,1637C 904.361,1605.59 890.195,1566.76 896,1520.5C 899.976,1496.55 910.309,1475.88 927,1458.5C 927.483,1457.55 927.649,1456.55 927.5,1455.5C 890.832,1455.67 854.165,1455.5 817.5,1455C 799.53,1449.69 789.53,1437.69 787.5,1419C 788.26,1411.72 790.427,1404.89 794,1398.5C 830.239,1335.85 866.073,1273.02 901.5,1210C 806.548,907.856 712.214,605.523 618.5,303C 618.095,302.055 617.428,301.388 616.5,301C 538.123,300.988 459.79,300.322 381.5,299C 358.632,290.432 350.132,274.266 356,250.5C 361.7,237.466 371.533,229.633 385.5,227C 469.181,226.825 552.848,226.325 636.5,225.5C 656.391,225.18 670.558,233.847 679,251.5C 695.847,304.705 712.68,357.872 729.5,411C 1143.83,411.333 1558.17,411.667 1972.5,412C 1994.62,417.116 2004.79,430.949 2003,453.5C 1959.05,682.255 1914.72,910.921 1870,1139.5C 1866.5,1149.67 1859.67,1156.5 1849.5,1160C 1842.37,1162.56 1835.04,1164.23 1827.5,1165C 1539.16,1193.27 1250.83,1221.6 962.5,1250C 938.107,1293.29 914.107,1336.79 890.5,1380.5 Z"/></g>
<g><path style="opacity:1" fill="white" d="M 535.5,410.5 C 559.398,414.897 570.898,429.231 570,453.5C 566.863,461.43 564.03,469.43 561.5,477.5C 553.504,480.222 545.504,483.055 537.5,486C 389.5,486.667 241.5,486.667 93.5,486C 70.469,486.613 56.6356,475.779 52,453.5C 51.1078,437.785 57.2744,425.618 70.5,417C 75.8382,414.248 81.5049,412.582 87.5,412C 237.001,411.833 386.334,411.333 535.5,410.5 Z"/></g>
<g><path style="opacity:1" fill="white" d="M 306.5,676.5 C 395.501,676.333 484.501,676.5 573.5,677C 598.303,684.111 608.136,700.278 603,725.5C 597.595,739.469 587.428,747.635 572.5,750C 483.5,750.667 394.5,750.667 305.5,750C 303.122,749.489 300.788,748.822 298.5,748C 280.212,739.946 272.379,725.779 275,705.5C 280.289,690.04 290.789,680.373 306.5,676.5 Z"/></g>
<g><path style="opacity:1" fill="white" d="M 91.5,918.5 C 271.5,918.333 451.5,918.5 631.5,919C 654.436,925.018 664.27,939.852 661,963.5C 655.94,980.895 644.44,990.729 626.5,993C 446.833,993.667 267.167,993.667 87.5,993C 58.2842,987.448 47.4509,970.282 55,941.5C 59.422,930.744 67.2553,923.911 78.5,921C 82.9884,920.24 87.3217,919.406 91.5,918.5 Z"/></g>
<g><path style="opacity:1" fill="white" d="M 349.5,1116.5 C 443.501,1116.33 537.501,1116.5 631.5,1117C 652.955,1124.05 662.122,1138.89 659,1161.5C 654.616,1177.22 644.449,1186.72 628.5,1190C 534.833,1190.67 441.167,1190.67 347.5,1190C 323.611,1181.73 314.778,1165.23 321,1140.5C 326.367,1127.42 335.867,1119.42 349.5,1116.5 Z"/></g>
<g><path style="opacity:1" fill="white" d="M 890.5,1380.5 C 921.996,1381.5 953.662,1381.83 985.5,1381.5C 953.664,1382.83 921.664,1382.83 889.5,1381.5C 889.624,1380.89 889.957,1380.56 890.5,1380.5 Z"/></g>
<g><path style="opacity:1" fill="white" d="M 5388.5,1491.5 C 5438.87,1487.17 5483.87,1500.33 5523.5,1531C 5543.56,1548.64 5558.56,1569.81 5568.5,1594.5C 5568.17,1595.17 5567.83,1595.83 5567.5,1596.5C 5546.17,1604.5 5524.83,1612.5 5503.5,1620.5C 5484.41,1578.8 5451.74,1557.46 5405.5,1556.5C 5342.97,1560.86 5308.47,1594.19 5302,1656.5C 5299.6,1686.91 5306.6,1714.91 5323,1740.5C 5346.41,1768.78 5376.58,1781.61 5413.5,1779C 5455.08,1776.48 5484.25,1756.32 5501,1718.5C 5501.74,1717.43 5502.74,1716.76 5504,1716.5C 5525.65,1724.21 5547.15,1732.21 5568.5,1740.5C 5568.83,1741.17 5569.17,1741.83 5569.5,1742.5C 5538.47,1809.8 5485.64,1843.8 5411,1844.5C 5356.77,1847.7 5310.77,1830.03 5273,1791.5C 5246.79,1760.05 5232.46,1723.72 5230,1682.5C 5226.46,1635.29 5238.46,1592.62 5266,1554.5C 5298.11,1516.69 5338.94,1495.69 5388.5,1491.5 Z"/></g>
<g><path style="opacity:1" fill="white" d="M 2344.5,1495.5 C 2378.74,1495.17 2412.91,1495.5 2447,1496.5C 2470.95,1567.68 2495.28,1638.68 2520,1709.5C 2544.85,1638.61 2569.52,1567.61 2594,1496.5C 2628.1,1495.17 2662.27,1495.17 2696.5,1496.5C 2706.7,1611.04 2716.03,1725.54 2724.5,1840C 2712.67,1840.17 2700.83,1840.33 2689,1840.5C 2676.78,1840.49 2664.78,1839.82 2653,1838.5C 2645.98,1753.66 2638.32,1669 2630,1584.5C 2601.53,1669.57 2572.86,1754.57 2544,1839.5C 2528.57,1840.66 2513.07,1840.82 2497.5,1840C 2468.4,1754.88 2439.4,1669.71 2410.5,1584.5C 2402.58,1669.49 2394.74,1754.49 2387,1839.5C 2363.24,1840.49 2339.41,1840.83 2315.5,1840.5C 2324.45,1725.39 2334.12,1610.39 2344.5,1495.5 Z"/></g>
<g><path style="opacity:1" fill="white" d="M 2889.5,1495.5 C 2918.84,1495.17 2948.17,1495.5 2977.5,1496.5C 3020.11,1610.99 3062.11,1725.66 3103.5,1840.5C 3079.16,1840.67 3054.83,1840.5 3030.5,1840C 3022.07,1816.89 3013.74,1793.72 3005.5,1770.5C 2957.5,1769.33 2909.5,1769.17 2861.5,1770C 2852.68,1792.96 2844.35,1816.13 2836.5,1839.5C 2824.33,1839.83 2812.17,1840.17 2800,1840.5C 2787.35,1840.66 2774.85,1840.16 2762.5,1839C 2804.54,1724.37 2846.88,1609.87 2889.5,1495.5 Z M 2932.5,1566.5 C 2934.28,1567.57 2935.45,1569.24 2936,1571.5C 2952.15,1617.44 2967.98,1663.44 2983.5,1709.5C 2949.69,1709.99 2916.02,1709.49 2882.5,1708C 2899.31,1660.88 2915.98,1613.71 2932.5,1566.5 Z"/></g>
<g><path style="opacity:1" fill="white" d="M 3156.5,1495.5 C 3202.5,1495.33 3248.5,1495.5 3294.5,1496C 3357.76,1501.43 3390.43,1535.93 3392.5,1599.5C 3391.92,1633.52 3376.92,1658.69 3347.5,1675C 3339.15,1679.12 3330.48,1682.45 3321.5,1685C 3320.98,1685.56 3320.64,1686.23 3320.5,1687C 3353.29,1736.74 3386.46,1786.24 3420,1835.5C 3421.01,1837.02 3421.51,1838.69 3421.5,1840.5C 3393.5,1840.67 3365.5,1840.5 3337.5,1840C 3307.9,1789.41 3277.9,1739.07 3247.5,1689C 3241.5,1688.33 3235.5,1688.33 3229.5,1689C 3229,1689.5 3228.5,1690 3228,1690.5C 3227.5,1740.5 3227.33,1790.5 3227.5,1840.5C 3203.5,1840.5 3179.5,1840.5 3155.5,1840.5C 3155.17,1725.43 3155.5,1610.43 3156.5,1495.5 Z M 3227.5,1556.5 C 3247.84,1556.33 3268.17,1556.5 3288.5,1557C 3315.25,1563.42 3326.41,1580.26 3322,1607.5C 3319.16,1617.35 3313.33,1624.85 3304.5,1630C 3299.47,1632.79 3294.13,1634.79 3288.5,1636C 3268.51,1637.33 3248.51,1637.67 3228.5,1637C 3227.51,1610.24 3227.17,1583.41 3227.5,1556.5 Z"/></g>
<g><path style="opacity:1" fill="white" d="M 3475.5,1495.5 C 3499.41,1495.17 3523.24,1495.51 3547,1496.5C 3547.5,1541.5 3547.67,1586.5 3547.5,1631.5C 3555.75,1631.82 3563.92,1631.48 3572,1630.5C 3607.5,1585.67 3643,1540.83 3678.5,1496C 3707.5,1495.5 3736.5,1495.33 3765.5,1495.5C 3765.65,1496.55 3765.48,1497.55 3765,1498.5C 3720.98,1552.36 3677.14,1606.36 3633.5,1660.5C 3678.67,1719.5 3723.83,1778.5 3769,1837.5C 3769.48,1838.45 3769.65,1839.45 3769.5,1840.5C 3739.16,1840.67 3708.83,1840.5 3678.5,1840C 3642.83,1791.67 3607.17,1743.33 3571.5,1695C 3563.51,1694.5 3555.51,1694.33 3547.5,1694.5C 3547.67,1742.83 3547.5,1791.17 3547,1839.5C 3523,1840.83 3499,1840.83 3475,1839.5C 3474.17,1724.76 3474.34,1610.1 3475.5,1495.5 Z"/></g>
<g><path style="opacity:1" fill="white" d="M 3822.5,1495.5 C 3889.17,1495.5 3955.83,1495.5 4022.5,1495.5C 4022.5,1516.5 4022.5,1537.5 4022.5,1558.5C 3979.93,1558.17 3937.43,1558.5 3895,1559.5C 3894.17,1585.41 3894.34,1611.24 3895.5,1637C 3932.83,1637.5 3970.17,1637.67 4007.5,1637.5C 4007.5,1658.17 4007.5,1678.83 4007.5,1699.5C 3970.17,1699.33 3932.83,1699.5 3895.5,1700C 3894.34,1725.43 3894.17,1750.93 3895,1776.5C 3937.43,1777.5 3979.93,1777.83 4022.5,1777.5C 4022.5,1798.5 4022.5,1819.5 4022.5,1840.5C 3955.6,1840.83 3888.76,1840.5 3822,1839.5C 3821.17,1724.76 3821.34,1610.1 3822.5,1495.5 Z"/></g>
<g><path style="opacity:1" fill="white" d="M 4060.5,1495.5 C 4139.07,1495.17 4217.57,1495.5 4296,1496.5C 4296.83,1517.07 4296.66,1537.57 4295.5,1558C 4268.59,1558.17 4241.76,1558.67 4215,1559.5C 4214.5,1653.17 4214.33,1746.83 4214.5,1840.5C 4190.59,1840.83 4166.76,1840.49 4143,1839.5C 4142.5,1745.83 4142.33,1652.17 4142.5,1558.5C 4115.17,1558.5 4087.83,1558.5 4060.5,1558.5C 4060.5,1537.5 4060.5,1516.5 4060.5,1495.5 Z"/></g>
<g><path style="opacity:1" fill="white" d="M 4350.5,1495.5 C 4403.17,1495.33 4455.83,1495.5 4508.5,1496C 4556.97,1503.46 4587.47,1530.96 4600,1578.5C 4608.68,1617.45 4600.68,1652.45 4576,1683.5C 4558.9,1701.3 4538.06,1712.14 4513.5,1716C 4483.19,1717.1 4452.85,1717.94 4422.5,1718.5C 4421.51,1759.12 4421.17,1799.79 4421.5,1840.5C 4397.59,1840.83 4373.76,1840.49 4350,1839.5C 4349.17,1724.79 4349.34,1610.13 4350.5,1495.5 Z M 4422.5,1555.5 C 4444.5,1555.33 4466.5,1555.5 4488.5,1556C 4512.64,1558.14 4527.47,1570.97 4533,1594.5C 4537.77,1617.88 4530.61,1636.38 4511.5,1650C 4506.83,1652.84 4501.83,1654.84 4496.5,1656C 4471.86,1657.59 4447.2,1657.92 4422.5,1657C 4421.17,1623.17 4421.17,1589.33 4422.5,1555.5 Z"/></g>
<g><path style="opacity:1" fill="white" d="M 4663.5,1495.5 C 4687.41,1495.17 4711.24,1495.51 4735,1496.5C 4735.5,1590.17 4735.67,1683.83 4735.5,1777.5C 4771.5,1777.5 4807.5,1777.5 4843.5,1777.5C 4843.5,1798.5 4843.5,1819.5 4843.5,1840.5C 4783.5,1840.5 4723.5,1840.5 4663.5,1840.5C 4663.5,1725.5 4663.5,1610.5 4663.5,1495.5 Z"/></g>
<g><path style="opacity:1" fill="white" d="M 4986.5,1495.5 C 5016.17,1495.17 5045.84,1495.5 5075.5,1496.5C 5118.08,1610.98 5160.08,1725.65 5201.5,1840.5C 5177.16,1840.67 5152.83,1840.5 5128.5,1840C 5119.82,1816.63 5111.16,1793.3 5102.5,1770C 5054.83,1769.33 5007.17,1769.33 4959.5,1770C 4950.83,1793.33 4942.17,1816.67 4933.5,1840C 4909.17,1840.5 4884.84,1840.67 4860.5,1840.5C 4902.21,1725.4 4944.21,1610.4 4986.5,1495.5 Z M 5030.5,1566.5 C 5031.5,1566.47 5032.16,1566.97 5032.5,1568C 5049.34,1615.01 5065.67,1662.18 5081.5,1709.5C 5047.83,1709.5 5014.17,1709.5 4980.5,1709.5C 4996.77,1661.69 5013.44,1614.02 5030.5,1566.5 Z"/></g>
<g><path style="opacity:1" fill="white" d="M 5628.5,1495.5 C 5695.17,1495.5 5761.83,1495.5 5828.5,1495.5C 5828.5,1516.5 5828.5,1537.5 5828.5,1558.5C 5785.93,1558.17 5743.43,1558.5 5701,1559.5C 5700.17,1585.41 5700.34,1611.24 5701.5,1637C 5738.83,1637.5 5776.17,1637.67 5813.5,1637.5C 5813.5,1658.17 5813.5,1678.83 5813.5,1699.5C 5776.17,1699.33 5738.83,1699.5 5701.5,1700C 5700.34,1725.43 5700.17,1750.93 5701,1776.5C 5743.43,1777.5 5785.93,1777.83 5828.5,1777.5C 5828.5,1798.5 5828.5,1819.5 5828.5,1840.5C 5761.6,1840.83 5694.76,1840.5 5628,1839.5C 5627.17,1724.76 5627.34,1610.1 5628.5,1495.5 Z"/></g>
</svg>
