<?xml version="1.0" encoding="UTF-8"?>
<!DOCTYPE svg PUBLIC "-//W3C//DTD SVG 1.1//EN" "http://www.w3.org/Graphics/SVG/1.1/DTD/svg11.dtd">
<svg xmlns="http://www.w3.org/2000/svg" version="1.1" width="5880px" height="1920px" style="shape-rendering:geometricPrecision; text-rendering:geometricPrecision; image-rendering:optimizeQuality; fill-rule:evenodd; clip-rule:evenodd" xmlns:xlink="http://www.w3.org/1999/xlink">
<g><path style="opacity:1" fill="#293242" d="M 2300.5,39.5 C 2614.17,39.5 2927.83,39.5 3241.5,39.5C 3241.99,112.249 3241.49,184.916 3240,257.5C 3035.17,541 2830.33,824.5 2625.5,1108C 2834.5,1108.5 3043.5,1108.67 3252.5,1108.5C 3252.5,1188.5 3252.5,1268.5 3252.5,1348.5C 2934.83,1348.5 2617.17,1348.5 2299.5,1348.5C 2299.01,1275.75 2299.51,1203.08 2301,1130.5C 2506.78,846.387 2712.95,562.553 2919.5,279C 2713.17,278.5 2506.83,278.333 2300.5,278.5C 2300.5,198.833 2300.5,119.167 2300.5,39.5 Z"/></g>
<g><path style="opacity:1" fill="#293242" d="M 4283.5,1081.5 C 4283.71,1079.82 4283.05,1078.82 4281.5,1078.5C 4098.83,1078.33 3916.17,1078.5 3733.5,1079C 3700.94,1168.51 3669.27,1258.35 3638.5,1348.5C 3545.5,1348.5 3452.5,1348.5 3359.5,1348.5C 3519.64,912.09 3679.97,475.756 3840.5,39.5C 3951.83,39.5 4063.17,39.5 4174.5,39.5C 4334.43,475.618 4494.76,911.618 4655.5,1347.5C 4562.5,1348.5 4469.5,1348.83 4376.5,1348.5C 4345.7,1259.44 4314.7,1170.44 4283.5,1081.5 Z M 4009.5,297.5 C 4073.5,481.833 4137.5,666.167 4201.5,850.5C 4072.17,850.5 3942.83,850.5 3813.5,850.5C 3877.97,666.436 3942.63,482.436 4007.5,298.5C 4008.17,298.167 4008.83,297.833 4009.5,297.5 Z"/></g>
<g><path style="opacity:1" fill="#293242" d="M 4852.5,39.5 C 5043.17,39.3333 5233.83,39.5 5424.5,40C 5503.08,44.3064 5575.08,67.973 5640.5,111C 5725.84,174.094 5779.68,257.927 5802,362.5C 5822.36,462.563 5812.69,559.563 5773,653.5C 5711.77,778.656 5611.93,851.823 5473.5,873C 5454.26,875.924 5434.93,877.924 5415.5,879C 5318.83,879.333 5222.17,879.667 5125.5,880C 5125,880.5 5124.5,881 5124,881.5C 5123.5,1037.17 5123.33,1192.83 5123.5,1348.5C 5033.17,1348.5 4942.83,1348.5 4852.5,1348.5C 4852.5,912.167 4852.5,475.833 4852.5,39.5 Z M 5125.5,266.5 C 5190.5,266.333 5255.5,266.5 5320.5,267C 5342.52,267.119 5364.52,267.786 5386.5,269C 5441.09,273.701 5484.92,297.534 5518,340.5C 5539.89,377.045 5550.72,416.711 5550.5,459.5C 5547.08,583.416 5483.42,647.249 5359.5,651C 5281.17,651.667 5202.83,651.667 5124.5,651C 5123.83,587.07 5123.5,523.07 5123.5,459C 5123.5,394.624 5124.17,330.457 5125.5,266.5 Z"/></g>
<g><path style="opacity:1" fill="#52ab73" d="M 874.5,1396.5 C 873.957,1396.56 873.624,1396.89 873.5,1397.5C 939.332,1398.83 1005,1398.83 1070.5,1397.5C 1297.83,1397.03 1525.17,1396.87 1752.5,1397C 1782.7,1395.56 1799.36,1409.73 1802.5,1439.5C 1855.14,1460.91 1883.48,1500.08 1887.5,1557C 1886.02,1602.97 1866.36,1638.64 1828.5,1664C 1777.21,1690.37 1728.54,1686.37 1682.5,1652C 1645.94,1617.29 1633.1,1575.12 1644,1525.5C 1649.34,1505.48 1658.84,1487.82 1672.5,1472.5C 1479.5,1471.33 1286.5,1471.17 1093.5,1472C 1093.17,1472.33 1092.83,1472.67 1092.5,1473C 1112.11,1493.07 1122.95,1517.24 1125,1545.5C 1128.51,1602.58 1105.01,1644.08 1054.5,1670C 1007.18,1689.29 963.175,1683.62 922.5,1653C 892.967,1626.78 878.3,1593.78 878.5,1554C 878.797,1523.09 889.63,1496.59 911,1474.5C 911.483,1473.55 911.649,1472.55 911.5,1471.5C 874.832,1471.67 838.165,1471.5 801.5,1471C 787.616,1468.12 778.449,1459.95 774,1446.5C 771.407,1436.14 772.407,1426.14 777,1416.5C 813.573,1353.18 849.739,1289.68 885.5,1226C 790.934,924.302 696.767,622.468 603,320.5C 602.626,319.584 602.126,318.75 601.5,318C 533.507,316.187 465.507,316.021 397.5,317.5C 382.942,318.598 368.942,316.432 355.5,311C 336.837,296.886 333.004,279.386 344,258.5C 350.482,250.019 358.982,244.853 369.5,243C 381.137,241.949 392.804,241.449 404.5,241.5C 471.5,242.812 538.5,242.812 605.5,241.5C 617.373,240.892 629.04,242.058 640.5,245C 651.333,249.167 658.833,256.667 663,267.5C 679.847,320.705 696.68,373.872 713.5,427C 1124.17,427.445 1534.83,427.445 1945.5,427C 1977.05,428.876 1990.55,445.376 1986,476.5C 1942.62,699.092 1899.62,921.758 1857,1144.5C 1854.86,1159.96 1846.69,1170.79 1832.5,1177C 1822.64,1179.5 1812.64,1181.17 1802.5,1182C 1517.15,1209.87 1231.82,1237.87 946.5,1266C 922.107,1309.29 898.107,1352.79 874.5,1396.5 Z"/></g>
<g><path style="opacity:1" fill="#b1b4ba" d="M 4009.5,297.5 C 4008.83,297.833 4008.17,298.167 4007.5,298.5C 4007.71,296.576 4008.38,296.243 4009.5,297.5 Z"/></g>
<g><path style="opacity:1" fill="#53ab73" d="M 518.5,426.5 C 527.28,427.724 535.28,430.891 542.5,436C 546.654,441.154 550.154,446.654 553,452.5C 554.384,458.109 554.717,463.775 554,469.5C 550.874,477.415 548.04,485.415 545.5,493.5C 537.515,496.218 529.515,499.052 521.5,502C 371.5,502.667 221.5,502.667 71.5,502C 62.8461,500.67 54.8461,497.67 47.5,493C 29.2684,469.581 32.2684,449.248 56.5,432C 61.6767,430.039 67.01,428.706 72.5,428C 221.334,427.833 370.001,427.333 518.5,426.5 Z"/></g>
<g><path style="opacity:1" fill="#53ab74" d="M 296.5,691.5 C 375.67,692.259 454.837,692.259 534,691.5C 547.547,690.545 560.38,693.045 572.5,699C 591.073,714.275 593.907,732.108 581,752.5C 574.627,759.539 566.794,764.039 557.5,766C 549.198,766.978 540.865,767.478 532.5,767.5C 455.828,766.202 379.161,766.202 302.5,767.5C 272.292,766.796 257.792,751.463 259,721.5C 265.117,703.552 277.617,693.552 296.5,691.5 Z"/></g>
<g><path style="opacity:1" fill="#53ab74" d="M 70.5,934.5 C 251.834,934.333 433.167,934.5 614.5,935C 632.975,938.474 643.641,949.474 646.5,968C 645.432,991.394 633.432,1005.06 610.5,1009C 430.167,1009.67 249.833,1009.67 69.5,1009C 43.2321,1003.07 32.7321,986.9 38,960.5C 40.0504,952.898 44.2171,946.731 50.5,942C 57.0214,938.775 63.6881,936.275 70.5,934.5 Z"/></g>
<g><path style="opacity:1" fill="#878c96" d="M 4281.5,1078.5 C 4283.05,1078.82 4283.71,1079.82 4283.5,1081.5C 4282.6,1080.71 4281.93,1079.71 4281.5,1078.5 Z"/></g>
<g><path style="opacity:1" fill="#53ab73" d="M 331.5,1132.5 C 425.834,1132.33 520.167,1132.5 614.5,1133C 630,1136.5 639.5,1146 643,1161.5C 645.705,1184.28 636.205,1199.11 614.5,1206C 520.5,1206.67 426.5,1206.67 332.5,1206C 313.652,1201.15 303.652,1188.98 302.5,1169.5C 303.816,1150.5 313.483,1138.17 331.5,1132.5 Z"/></g>
<g><path style="opacity:1" fill="#71ba8c" d="M 874.5,1396.5 C 939.665,1397.5 1005,1397.83 1070.5,1397.5C 1005,1398.83 939.332,1398.83 873.5,1397.5C 873.624,1396.89 873.957,1396.56 874.5,1396.5 Z"/></g>
<g><path style="opacity:1" fill="#2a3343" d="M 5372.5,1507.5 C 5419.9,1503.26 5462.9,1514.76 5501.5,1542C 5524.47,1560.46 5541.47,1583.29 5552.5,1610.5C 5552.18,1611.65 5551.52,1612.48 5550.5,1613C 5529.67,1620.83 5508.83,1628.67 5488,1636.5C 5487.23,1636.36 5486.56,1636.02 5486,1635.5C 5463.76,1588.71 5426.59,1568.21 5374.5,1574C 5320.97,1584.54 5291.47,1617.04 5286,1671.5C 5282.92,1705.87 5291.92,1736.53 5313,1763.5C 5333.46,1784.94 5358.63,1795.61 5388.5,1795.5C 5423.02,1795.82 5451.18,1782.82 5473,1756.5C 5477.52,1749.46 5481.52,1742.12 5485,1734.5C 5485.74,1733.43 5486.74,1732.76 5488,1732.5C 5509.76,1740.31 5531.43,1748.31 5553,1756.5C 5540.82,1788.71 5520.32,1814.54 5491.5,1834C 5462.86,1852.16 5431.53,1860.99 5397.5,1860.5C 5341.43,1864.09 5293.93,1845.76 5255,1805.5C 5226.85,1769.71 5213.02,1728.88 5213.5,1683C 5213.39,1628.25 5233.39,1582.58 5273.5,1546C 5302.57,1523.13 5335.57,1510.3 5372.5,1507.5 Z"/></g>
<g><path style="opacity:1" fill="#2a3343" d="M 2615.5,1602.5 C 2615.29,1600.58 2614.62,1600.24 2613.5,1601.5C 2585.33,1686.51 2556.66,1771.35 2527.5,1856C 2511.93,1856.82 2496.43,1856.66 2481,1855.5C 2451.99,1770.47 2422.99,1685.47 2394,1600.5C 2386.57,1685.53 2378.91,1770.53 2371,1855.5C 2347.24,1856.49 2323.41,1856.83 2299.5,1856.5C 2308.45,1741.79 2317.95,1627.13 2328,1512.5C 2345.09,1511.84 2362.26,1511.5 2379.5,1511.5C 2396.74,1511.5 2413.91,1511.84 2431,1512.5C 2454.95,1583.68 2479.28,1654.68 2504,1725.5C 2528.85,1654.61 2553.52,1583.61 2578,1512.5C 2612.33,1511.17 2646.67,1511.17 2681,1512.5C 2690.81,1627.08 2699.98,1741.58 2708.5,1856C 2696.67,1856.17 2684.83,1856.33 2673,1856.5C 2660.78,1856.49 2648.78,1855.82 2637,1854.5C 2629.5,1770.52 2622.34,1686.52 2615.5,1602.5 Z"/></g>
<g><path style="opacity:1" fill="#2a3343" d="M 2872.5,1511.5 C 2902.41,1511.17 2932.24,1511.5 2962,1512.5C 3002,1621.17 3042,1729.83 3082,1838.5C 3084.15,1844.44 3085.98,1850.44 3087.5,1856.5C 3063.16,1856.67 3038.83,1856.5 3014.5,1856C 3006.22,1832.48 2997.55,1809.15 2988.5,1786C 2940.83,1785.33 2893.17,1785.33 2845.5,1786C 2837.07,1809.11 2828.74,1832.28 2820.5,1855.5C 2795.93,1856.83 2771.43,1856.83 2747,1855.5C 2788.71,1740.88 2830.54,1626.22 2872.5,1511.5 Z M 2916.5,1582.5 C 2917.5,1582.47 2918.16,1582.97 2918.5,1584C 2935.34,1631.03 2951.68,1678.2 2967.5,1725.5C 2933.69,1725.99 2900.02,1725.49 2866.5,1724C 2883.46,1676.94 2900.13,1629.77 2916.5,1582.5 Z"/></g>
<g><path style="opacity:1" fill="#2a3343" d="M 3139.5,1511.5 C 3186.5,1511.33 3233.5,1511.5 3280.5,1512C 3320.18,1514.09 3349.02,1532.59 3367,1567.5C 3376.26,1592.32 3377.93,1617.66 3372,1643.5C 3360.7,1675.12 3338.54,1694.29 3305.5,1701C 3305.04,1701.41 3304.71,1701.91 3304.5,1702.5C 3337.17,1752.51 3370.34,1802.18 3404,1851.5C 3405.01,1853.02 3405.51,1854.69 3405.5,1856.5C 3377.5,1856.67 3349.5,1856.5 3321.5,1856C 3291.62,1806.41 3262.12,1756.58 3233,1706.5C 3232.25,1705.87 3231.42,1705.37 3230.5,1705C 3224.83,1704.33 3219.17,1704.33 3213.5,1705C 3213,1705.5 3212.5,1706 3212,1706.5C 3211.5,1756.5 3211.33,1806.5 3211.5,1856.5C 3187.5,1856.5 3163.5,1856.5 3139.5,1856.5C 3139.5,1741.5 3139.5,1626.5 3139.5,1511.5 Z M 3211.5,1572.5 C 3231.5,1572.33 3251.5,1572.5 3271.5,1573C 3298.79,1578.97 3310.29,1595.8 3306,1623.5C 3300.81,1637.53 3290.98,1646.7 3276.5,1651C 3255.23,1653.24 3233.9,1653.9 3212.5,1653C 3211.51,1626.24 3211.17,1599.41 3211.5,1572.5 Z"/></g>
<g><path style="opacity:1" fill="#2b3444" d="M 3459.5,1511.5 C 3483.41,1511.17 3507.24,1511.51 3531,1512.5C 3531.5,1557.5 3531.67,1602.5 3531.5,1647.5C 3539.17,1647.67 3546.84,1647.5 3554.5,1647C 3590.88,1602.29 3626.88,1557.29 3662.5,1512C 3691.5,1511.5 3720.5,1511.33 3749.5,1511.5C 3749.05,1514.14 3747.88,1516.47 3746,1518.5C 3702.93,1570.98 3660.09,1623.65 3617.5,1676.5C 3662.86,1735.36 3708.02,1794.36 3753,1853.5C 3753.48,1854.45 3753.65,1855.45 3753.5,1856.5C 3723.16,1856.67 3692.83,1856.5 3662.5,1856C 3626.83,1807.67 3591.17,1759.33 3555.5,1711C 3547.51,1710.5 3539.51,1710.33 3531.5,1710.5C 3531.5,1759.17 3531.5,1807.83 3531.5,1856.5C 3507.26,1856.83 3483.09,1856.49 3459,1855.5C 3458.17,1740.76 3458.34,1626.1 3459.5,1511.5 Z"/></g>
<g><path style="opacity:1" fill="#2a3242" d="M 3806.5,1511.5 C 3873.17,1511.5 3939.83,1511.5 4006.5,1511.5C 4006.5,1532.5 4006.5,1553.5 4006.5,1574.5C 3963.93,1574.17 3921.43,1574.5 3879,1575.5C 3878.17,1601.41 3878.34,1627.24 3879.5,1653C 3916.83,1653.5 3954.17,1653.67 3991.5,1653.5C 3991.5,1674.17 3991.5,1694.83 3991.5,1715.5C 3954.17,1715.33 3916.83,1715.5 3879.5,1716C 3878.34,1741.43 3878.17,1766.93 3879,1792.5C 3921.43,1793.5 3963.93,1793.83 4006.5,1793.5C 4006.5,1814.5 4006.5,1835.5 4006.5,1856.5C 3939.5,1856.5 3872.5,1856.5 3805.5,1856.5C 3805.17,1741.43 3805.5,1626.43 3806.5,1511.5 Z"/></g>
<g><path style="opacity:1" fill="#2a3343" d="M 4044.5,1511.5 C 4123.17,1511.5 4201.83,1511.5 4280.5,1511.5C 4280.5,1532.5 4280.5,1553.5 4280.5,1574.5C 4253.26,1574.17 4226.09,1574.51 4199,1575.5C 4198.5,1669.17 4198.33,1762.83 4198.5,1856.5C 4174.59,1856.83 4150.76,1856.49 4127,1855.5C 4126.5,1761.83 4126.33,1668.17 4126.5,1574.5C 4099.17,1574.5 4071.83,1574.5 4044.5,1574.5C 4044.5,1553.5 4044.5,1532.5 4044.5,1511.5 Z"/></g>
<g><path style="opacity:1" fill="#2b3444" d="M 4387.5,1510.5 C 4422.16,1511.13 4456.83,1511.63 4491.5,1512C 4544.71,1520.54 4576.21,1551.37 4586,1604.5C 4592.08,1645.6 4580.25,1680.43 4550.5,1709C 4532.53,1722.81 4512.2,1730.81 4489.5,1733C 4462.17,1734.53 4434.84,1734.87 4407.5,1734C 4406.83,1774.47 4406.16,1814.97 4405.5,1855.5C 4381.84,1856.67 4358.17,1856.83 4334.5,1856C 4333.33,1741.57 4333.17,1627.07 4334,1512.5C 4351.93,1511.84 4369.76,1511.17 4387.5,1510.5 Z M 4406.5,1571.5 C 4428.84,1571.33 4451.17,1571.5 4473.5,1572C 4496.95,1574.8 4511.45,1587.63 4517,1610.5C 4521.79,1634.5 4514.29,1653.33 4494.5,1667C 4488.88,1670.14 4482.88,1672.14 4476.5,1673C 4453.17,1673.67 4429.83,1673.67 4406.5,1673C 4405.18,1639.2 4405.18,1605.36 4406.5,1571.5 Z"/></g>
<g><path style="opacity:1" fill="#2b3444" d="M 4647.5,1511.5 C 4671.41,1511.17 4695.24,1511.51 4719,1512.5C 4719.33,1605.83 4719.67,1699.17 4720,1792.5C 4755.76,1793.5 4791.59,1793.83 4827.5,1793.5C 4827.5,1814.5 4827.5,1835.5 4827.5,1856.5C 4767.26,1856.83 4707.1,1856.5 4647,1855.5C 4646.17,1740.76 4646.34,1626.1 4647.5,1511.5 Z"/></g>
<g><path style="opacity:1" fill="#2a3343" d="M 4970.5,1511.5 C 5000.17,1511.17 5029.84,1511.5 5059.5,1512.5C 5102.1,1626.97 5144.1,1741.64 5185.5,1856.5C 5160.83,1856.5 5136.17,1856.5 5111.5,1856.5C 5103.86,1832.75 5095.53,1809.25 5086.5,1786C 5038.83,1785.33 4991.17,1785.33 4943.5,1786C 4934.47,1809.25 4926.14,1832.75 4918.5,1856.5C 4893.83,1856.5 4869.17,1856.5 4844.5,1856.5C 4886.21,1741.4 4928.21,1626.4 4970.5,1511.5 Z M 5014.5,1582.5 C 5015.79,1583.06 5016.62,1584.06 5017,1585.5C 5033.47,1632.09 5049.63,1678.76 5065.5,1725.5C 5031.83,1725.5 4998.17,1725.5 4964.5,1725.5C 4980.77,1677.69 4997.44,1630.02 5014.5,1582.5 Z"/></g>
<g><path style="opacity:1" fill="#2a3342" d="M 5612.5,1511.5 C 5679.17,1511.5 5745.83,1511.5 5812.5,1511.5C 5812.5,1532.5 5812.5,1553.5 5812.5,1574.5C 5769.93,1574.17 5727.43,1574.5 5685,1575.5C 5684.17,1601.41 5684.34,1627.24 5685.5,1653C 5722.83,1653.5 5760.17,1653.67 5797.5,1653.5C 5797.5,1674.17 5797.5,1694.83 5797.5,1715.5C 5760.17,1715.33 5722.83,1715.5 5685.5,1716C 5684.34,1741.43 5684.17,1766.93 5685,1792.5C 5727.43,1793.5 5769.93,1793.83 5812.5,1793.5C 5812.5,1814.5 5812.5,1835.5 5812.5,1856.5C 5745.6,1856.83 5678.76,1856.5 5612,1855.5C 5611.17,1740.76 5611.34,1626.1 5612.5,1511.5 Z"/></g>
<g><path style="opacity:1" fill="#b7babf" d="M 2613.5,1601.5 C 2614.62,1600.24 2615.29,1600.58 2615.5,1602.5C 2614.83,1602.17 2614.17,1601.83 2613.5,1601.5 Z"/></g>
</svg>
